HIERARCHY
ROOT Hips
{
	OFFSET 0.00000 0.00000 0.00000
	CHANNELS 6 Xposition Yposition Zposition Zrotation Yrotation Xrotation 
	JOINT LHipJoint
	{
		OFFSET 0 0 0
		CHANNELS 3 Zrotation Yrotation Xrotation
		JOINT LeftHip
		{
			OFFSET 1.88772 -1.62769 0.85636
			CHANNELS 3 Zrotation Yrotation Xrotation
			JOINT LeftKnee
			{
				OFFSET 2.39836 -6.58946 0.00000
				CHANNELS 3 Zrotation Yrotation Xrotation
				JOINT LeftAnkle
				{
					OFFSET 2.78523 -7.65237 0.00000
					CHANNELS 3 Zrotation Yrotation Xrotation
					JOINT LeftToe
					{
						OFFSET 0.19551 -0.53715 1.90694
						CHANNELS 3 Zrotation Yrotation Xrotation
						End Site
						{
							OFFSET 0.00000 -0.00000 0.99735
						}
					}
				}
			}
		}
	}
	JOINT RHipJoint
	{
		OFFSET 0 0 0
		CHANNELS 3 Zrotation Yrotation Xrotation
		JOINT RightHip
		{
			OFFSET -1.74282 -1.62769 0.85636
			CHANNELS 3 Zrotation Yrotation Xrotation
			JOINT RightKnee
			{
				OFFSET -2.36062 -6.48575 0.00000
				CHANNELS 3 Zrotation Yrotation Xrotation
				JOINT RightAnkle
				{
					OFFSET -2.76258 -7.59014 0.00000
					CHANNELS 3 Zrotation Yrotation Xrotation
					JOINT RightToe
					{
						OFFSET -0.19308 -0.53048 2.03952
						CHANNELS 3 Zrotation Yrotation Xrotation
						End Site
						{
							OFFSET -0.00000 -0.00000 1.06031
						}
					}
				}
			}
		}
	}
	JOINT lowerback
	{
		OFFSET 0 0 0
		CHANNELS 3 Zrotation Yrotation Xrotation
		JOINT Chest
		{
			OFFSET -0.08299 2.03160 -0.30721
			CHANNELS 3 Zrotation Yrotation Xrotation
			JOINT Chest2
			{
				OFFSET -0.01030 2.00603 0.13891
				CHANNELS 3 Zrotation Yrotation Xrotation
				JOINT lowerneck
				{
					OFFSET 0 0 0
					CHANNELS 3 Zrotation Yrotation Xrotation
					JOINT Neck
					{
						OFFSET 0.04282 1.69578 0.19991
						CHANNELS 3 Zrotation Yrotation Xrotation
						JOINT Head
						{
							OFFSET -0.08665 1.66622 -0.03785
							CHANNELS 3 Zrotation Yrotation Xrotation
							End Site
							{
								OFFSET -0.03699 1.83329 -0.04094
							}
						}
					}
				}
				JOINT LeftCollar
				{
					OFFSET 0 0 0
					CHANNELS 3 Zrotation Yrotation Xrotation
					JOINT LeftShoulder
					{
						OFFSET 3.04219 1.50803 -0.05347
CHANNELS 3 Zrotation Xrotation Yrotation
						JOINT LeftElbow
						{
OFFSET 0 -5.791990 0.000000
CHANNELS 3 Zrotation Xrotation Yrotation
							JOINT LeftWrist
							{
OFFSET 0 -3.499080 0.000000
CHANNELS 3 Zrotation Xrotation Yrotation
								JOINT lhand
								{
									OFFSET 0 0 0
CHANNELS 3 Zrotation Xrotation Yrotation
									JOINT LFingers
									{
OFFSET 0 -0.593860 0.000000
CHANNELS 3 Zrotation Xrotation Yrotation
										End Site
										{
OFFSET 0 -0.478790 0.000000
										}
									}
								}
								JOINT LThumb
								{
OFFSET 0 0.000000 0.000000
CHANNELS 3 Zrotation Xrotation Yrotation
									End Site
									{
OFFSET 0 -0.486100 0.486100
									}
								}
							}
						}
					}
				}
				JOINT RightCollar
				{
					OFFSET 0 0 0
					CHANNELS 3 Zrotation Yrotation Xrotation
					JOINT RightShoulder
					{
						OFFSET -3.30316 1.18853 0.11175
CHANNELS 3 Zrotation Xrotation Yrotation
						JOINT RightElbow
						{
OFFSET 0 -5.737990 0.000000
CHANNELS 3 Zrotation Xrotation Yrotation
							JOINT RightWrist
							{
OFFSET 0 -3.579160 -0.000000
CHANNELS 3 Zrotation Xrotation Yrotation
								JOINT rhand
								{
									OFFSET 0 0 0
CHANNELS 3 Zrotation Xrotation Yrotation
									JOINT RFingers
									{
OFFSET 0 -0.615580 0.000000
CHANNELS 3 Zrotation Xrotation Yrotation
										End Site
										{
OFFSET 0 -0.496290 0.000000
										}
									}
								}
								JOINT RThumb
								{
OFFSET 0 0.000000 0.000000
CHANNELS 3 Zrotation Xrotation Yrotation
									End Site
									{
OFFSET 0 -0.503870 0.503870
									}
								}
							}
						}
					}
				}
			}
		}
	}
}
MOTION
Frames: 4
Frame Time: 0.008333333333333333
9.206844 15.436321 -17.746423 -361.363482 -72.197766 6.116373 0.000000 0.000000 0.000000 -6.435752 -5.059198 -41.383143 11.388051 18.119755 64.035510 1.556925 -9.945300 -22.413767 0.809671 -5.742082 -16.037909 0.000000 0.000000 0.000000 9.843376 -0.634977 -35.069131 -10.372386 -17.613989 60.725844 -2.145414 1.209187 -27.384909 -0.946790 6.196723 -17.356380 -4.408517 2.043434 10.876701 -1.279750 2.055265 0.468820 0.818062 1.092343 -5.724439 0.435020 3.168011 -3.021333 -3.073732 4.312636 3.098150 -0.932269 2.093811 1.554452 0.000000 0.000000 0.000000 11.860144 -26.065492 -27.015319 33.533603 -43.736181 13.789624 29.042432 -91.879484 21.912457 0.000000 0.000000 0.000000 -7.125000 0.000000 0.000000 0.139314 5.272317 0.126201 0.000000 0.000000 0.000000 -5.096238 -23.726602 30.397242 -31.730339 -42.330972 -12.558918 -23.176091 -46.856832 36.706305 0.000000 0.000000 0.000000 7.125000 0.000000 0.000000 15.324778 68.447577 -8.700738
9.134716 15.234178 -17.718865 -362.973105 -72.459851 6.910089 0.000000 0.000000 0.000000 -5.532326 -4.870798 -41.812076 12.338365 18.530076 67.057330 1.778578 -10.726439 -23.995792 0.847842 -5.872767 -16.415575 0.000000 0.000000 0.000000 9.970987 -0.817623 -35.444776 -11.177107 -18.020651 63.355459 -2.356702 1.519403 -28.648821 -1.122322 6.729392 -18.915965 -3.698174 2.230808 10.780349 -1.684829 2.373196 0.658382 -0.045147 1.217566 -5.438773 1.553650 3.068438 -2.679287 -3.880666 4.147554 2.585301 -1.389347 2.018147 1.380278 0.000000 0.000000 0.000000 6.942716 -27.846513 -26.871082 33.969353 -44.061906 14.091813 31.584480 -92.207224 20.934750 0.000000 0.000000 0.000000 -7.125000 0.000000 0.000000 1.867956 5.806661 1.670414 0.000000 0.000000 0.000000 -1.131079 -27.094919 30.156883 -28.719686 -39.770408 -10.580951 -24.954135 -47.772799 37.068339 0.000000 0.000000 0.000000 7.125000 0.000000 0.000000 13.439949 69.350653 -7.887583
9.034960 15.136317 -17.708608 -363.730823 -73.005923 7.212892 0.000000 0.000000 0.000000 -5.131856 -4.536562 -41.605428 12.819240 18.715916 68.563054 1.900670 -11.035692 -24.819734 0.739520 -5.492618 -15.319394 0.000000 0.000000 0.000000 9.973405 -1.549617 -35.584478 -11.564412 -18.200398 64.601260 -2.325325 2.229534 -28.272490 -1.493915 7.721062 -21.869944 -3.669899 2.142803 10.402712 -1.691046 2.279550 0.569864 -0.040810 1.172055 -5.316268 1.325964 3.451867 -2.252061 -3.940077 4.648059 1.854665 -1.367673 2.276717 1.084909 0.000000 0.000000 0.000000 3.372108 -26.911703 -27.996511 37.929761 -46.794009 16.914518 36.715258 -98.983473 20.815870 0.000000 0.000000 0.000000 -7.125000 0.000000 0.000000 5.069305 4.691035 4.656487 0.000000 0.000000 0.000000 1.184918 -27.377834 33.047332 -30.966890 -41.707610 -12.047938 -23.439312 -51.371231 40.007341 0.000000 0.000000 0.000000 7.125000 0.000000 0.000000 19.387926 71.599804 -12.417186
8.933994 15.155624 -17.720251 -362.546531 -73.487931 5.825522 0.000000 0.000000 0.000000 -5.490211 -3.468575 -40.695550 12.619321 18.640403 67.939025 1.902493 -11.306959 -24.853857 0.895540 -6.030867 -16.874292 0.000000 0.000000 0.000000 9.758945 -2.205185 -35.058920 -11.488565 -18.165973 64.358093 -2.397415 3.695498 -28.405478 -1.300412 7.224283 -20.381511 -3.909093 2.292146 9.982471 -1.957253 2.449743 0.282725 -0.202493 1.262483 -5.386586 1.277208 3.172887 -2.339980 -3.432979 4.253180 1.342940 -1.208167 2.090699 0.912513 0.000000 0.000000 0.000000 1.146474 -25.806847 -29.341746 42.426965 -49.442894 20.264603 38.085049 -99.928343 20.585778 0.000000 0.000000 0.000000 -7.125000 0.000000 0.000000 5.952509 4.587421 5.487739 0.000000 0.000000 0.000000 1.843143 -26.223679 34.660428 -36.051820 -45.548075 -15.559703 -29.455206 -49.278985 39.678523 0.000000 0.000000 0.000000 7.125000 0.000000 0.000000 10.371369 73.371861 -6.989089
